<svg width="327" height="318" viewBox="0 0 327 318" fill="none" xmlns="http://www.w3.org/2000/svg">
<g clip-path="url(#clip0_132_18)">
<path d="M256.255 69.4247C254.012 64.6303 251.664 59.9058 248.986 55.4124C218.131 3.48558 135.477 -24.784 94.521 28.8856C84.757 41.68 81.3575 57.1342 74.7897 71.8044C59.8458 105.169 31.9276 125.117 14.4252 156.011C0.855142 179.963 2.66355 210.654 10.2336 236.544C18.4626 264.68 32.9369 284.327 56.0888 299.263C82.0514 316.005 109.815 311.358 137.874 305.535C150.491 302.917 163.507 300.243 176.404 301.244C192.561 302.497 208.507 307.543 224.537 309.993C241.206 312.541 258.498 313.143 274.556 307.592C325.977 289.793 338.159 206.405 317.012 158.629C309.526 141.719 296.839 128.673 285.063 115.437C272.348 101.152 264.554 87.1676 256.255 69.4317V69.4247Z" fill="#92E3A9"/>
<path opacity="0.8" d="M256.255 69.4247C254.012 64.6303 251.664 59.9058 248.986 55.4124C218.131 3.48558 135.477 -24.784 94.521 28.8856C84.757 41.68 81.3575 57.1342 74.7897 71.8044C59.8458 105.169 31.9276 125.117 14.4252 156.011C0.855142 179.963 2.66355 210.654 10.2336 236.544C18.4626 264.68 32.9369 284.327 56.0888 299.263C82.0514 316.005 109.815 311.358 137.874 305.535C150.491 302.917 163.507 300.243 176.404 301.244C192.561 302.497 208.507 307.543 224.537 309.993C241.206 312.541 258.498 313.143 274.556 307.592C325.977 289.793 338.159 206.405 317.012 158.629C309.526 141.719 296.839 128.673 285.063 115.437C272.348 101.152 264.554 87.1676 256.255 69.4317V69.4247Z" fill="white"/>
<path d="M0.350464 258.087H326.65" stroke="#263238" stroke-linecap="round" stroke-linejoin="round"/>
<path d="M139.64 22.4883H32.3341V162.234H139.64V22.4883Z" stroke="#263238" stroke-linecap="round" stroke-linejoin="round"/>
<path d="M132.252 32.1122H39.7219V152.617H132.252V32.1122Z" stroke="#263238" stroke-linecap="round" stroke-linejoin="round"/>
<path d="M107.327 64.5673H64.6401V120.155H107.327V64.5673Z" stroke="#263238" stroke-linecap="round" stroke-linejoin="round"/>
<path d="M310.079 35.8217H263.271V96.7774H310.079V35.8217Z" stroke="#263238" stroke-linecap="round" stroke-linejoin="round"/>
<path d="M306.862 40.0212H266.495V92.5849H306.862V40.0212Z" stroke="#263238" stroke-linecap="round" stroke-linejoin="round"/>
<path d="M295.984 54.1805H277.367V78.4256H295.984V54.1805Z" stroke="#263238" stroke-linecap="round" stroke-linejoin="round"/>
<path d="M257.383 17.8479H224.306V60.9207H257.383V17.8479Z" stroke="#263238" stroke-linecap="round" stroke-linejoin="round"/>
<path d="M255.105 20.8155H226.584V57.9601H255.105V20.8155Z" stroke="#263238" stroke-linecap="round" stroke-linejoin="round"/>
<path d="M247.423 30.8173H234.266V47.9513H247.423V30.8173Z" stroke="#263238" stroke-linecap="round" stroke-linejoin="round"/>
<path d="M195.168 89.1483C202.339 83.822 207.519 85.2218 206.236 87.0976C204.946 88.9664 204.764 89.3093 197.159 92.179C191.425 94.3417 186.245 97.5193 184.051 98.9472C183.925 99.6751 183.855 100.424 183.869 101.187C183.911 103.56 184.528 105.862 185.502 108.067C186.939 105.855 189.435 103.413 189.435 103.413C189.435 103.413 199.879 99.2481 205.682 97.8833C211.486 96.5185 212.509 97.2534 210.119 100.655C207.729 104.057 204.372 105.33 198.175 107.906C193.374 109.901 189.82 112.246 188.467 113.197C189.974 115.339 191.699 117.341 193.388 119.161C193.851 117.943 194.853 116.368 197.054 115.01C201.336 112.372 211.542 109.943 213.512 108.445C215.481 106.947 217.563 112.421 207.119 116.585C201.035 119.014 198.154 121.254 196.815 122.702C199.129 124.998 201.407 127.049 203.608 128.883C204.673 128.106 206.159 127.07 208.199 125.677C218.923 118.384 219.68 121.722 214.984 126.265C211.78 129.359 208.647 130.835 207.498 131.976C209.615 133.572 211.626 134.972 213.512 136.19C214.255 135.126 215.706 133.747 219.792 133.229C227.327 132.27 225.351 133.95 220.689 137.443C219.645 138.226 218.944 138.786 218.516 139.22C221.117 140.697 223.29 141.775 224.874 142.573C225.813 143.049 226.577 143.434 227.215 143.749C227.46 143.308 227.53 142.44 228.575 141.544C230.916 139.535 232.101 144.239 230.166 145.24C230.166 145.24 232.409 144.344 235.22 142.783C234.631 141.747 233.467 141.509 234.4 139.661C235.514 137.45 237.589 137.513 239.404 140.137C240.981 138.989 242.495 137.688 243.68 136.253C241.963 134.447 239.474 132.494 240.28 131.325C241.115 130.114 244.037 131.234 246.393 132.144C247.521 130.24 248.664 128.162 249.75 125.964C247.794 125.691 245.271 125.068 244.22 123.626C242.39 121.121 242.804 119.224 244.549 119.28C245.881 119.329 249.196 120.764 251.692 121.785C252.54 119.826 253.325 117.803 254.026 115.745C251.285 115.213 247.598 114.709 246.365 112.372C244.402 108.641 246.848 108.557 254.047 112.295C254.369 112.463 254.671 112.61 254.965 112.75C255.701 110.195 256.269 107.612 256.612 105.064C253.101 103.378 247.29 102.496 242.769 100.403C236.243 97.3864 241.563 94.9577 243.47 95.3776C244.893 95.6856 252.596 99.8081 256.921 101.901C257.166 97.7083 256.71 93.6628 255.273 90.0372C251.481 89.1203 245.271 88.6864 241.64 87.8255C236.446 86.6007 234.631 83.745 240.007 84.6339C243.806 85.2568 250.36 86.8526 253.956 87.3006C252.421 84.6549 250.255 82.2962 247.297 80.3574C244.367 78.4396 240.645 76.6828 236.692 75.521C234.119 76.3819 231.967 77.8027 230.993 77.8657C229.241 77.9777 230.881 76.1159 231.28 74.7371C231.315 74.6111 231.365 74.4921 231.421 74.3871C224.418 73.4422 217.437 74.8561 213.372 80.9313C213.764 80.3434 208.703 78.2506 208.353 78.1667C204.568 77.2638 200.516 78.9576 197.131 80.5884C193.199 82.4851 190.374 85.9217 188.236 89.6383C187.36 91.1571 186.428 92.7039 185.65 94.2997C186.841 94.0688 189.841 93.1099 195.168 89.1553V89.1483Z" fill="#92E3A9"/>
<path d="M227.944 150.524C231.771 147.682 234.54 148.431 233.853 149.425C233.166 150.419 233.068 150.608 229.002 152.141C225.939 153.296 223.178 154.989 222.007 155.752C221.937 156.144 221.902 156.536 221.909 156.949C221.93 158.216 222.259 159.448 222.778 160.624C223.542 159.441 224.874 158.139 224.874 158.139C224.874 158.139 230.446 155.913 233.551 155.185C236.657 154.458 237.196 154.849 235.921 156.662C234.645 158.475 232.85 159.161 229.542 160.533C226.977 161.597 225.084 162.85 224.355 163.36C225.161 164.508 226.079 165.572 226.984 166.545C227.229 165.894 227.769 165.054 228.939 164.326C231.224 162.92 236.678 161.618 237.729 160.82C238.78 160.022 239.888 162.941 234.315 165.166C231.063 166.461 229.528 167.658 228.813 168.435C230.047 169.66 231.266 170.759 232.437 171.738C233.005 171.326 233.797 170.773 234.89 170.031C240.617 166.139 241.023 167.917 238.514 170.346C236.804 171.997 235.128 172.788 234.519 173.397C235.647 174.251 236.727 174.993 237.729 175.644C238.128 175.077 238.9 174.342 241.086 174.062C245.11 173.551 244.051 174.447 241.563 176.309C241.009 176.729 240.631 177.023 240.399 177.261C241.787 178.045 242.951 178.626 243.792 179.053C244.297 179.305 244.703 179.515 245.04 179.683C245.173 179.445 245.208 178.983 245.769 178.507C247.016 177.436 247.654 179.941 246.617 180.48C246.617 180.48 247.815 180.004 249.315 179.172C249 178.619 248.376 178.493 248.881 177.506C249.477 176.323 250.584 176.358 251.551 177.758C252.392 177.149 253.199 176.449 253.836 175.686C252.918 174.72 251.593 173.677 252.021 173.054C252.463 172.41 254.026 173.005 255.28 173.488C255.883 172.473 256.493 171.361 257.075 170.185C256.03 170.038 254.685 169.709 254.124 168.939C253.142 167.602 253.367 166.587 254.299 166.622C255.007 166.65 256.78 167.413 258.112 167.959C258.568 166.916 258.988 165.831 259.36 164.732C257.895 164.452 255.925 164.179 255.273 162.934C254.222 160.946 255.533 160.897 259.374 162.892C259.549 162.983 259.71 163.06 259.864 163.129C260.257 161.765 260.558 160.386 260.748 159.021C258.876 158.118 255.771 157.649 253.36 156.536C249.876 154.926 252.715 153.632 253.731 153.849C254.488 154.017 258.603 156.214 260.916 157.327C261.049 155.087 260.804 152.932 260.04 150.993C258.014 150.503 254.699 150.272 252.757 149.81C249.988 149.152 249.014 147.633 251.888 148.102C253.921 148.438 257.418 149.285 259.332 149.53C258.512 148.116 257.355 146.856 255.778 145.821C254.215 144.799 252.231 143.861 250.114 143.238C248.741 143.7 247.591 144.456 247.072 144.491C246.14 144.554 247.009 143.56 247.227 142.818C247.248 142.748 247.276 142.692 247.304 142.629C243.561 142.125 239.839 142.881 237.666 146.122C237.876 145.807 235.171 144.694 234.988 144.645C232.97 144.162 230.804 145.065 228.995 145.94C226.892 146.954 225.385 148.788 224.25 150.769C223.78 151.581 223.283 152.407 222.869 153.261C223.507 153.135 225.105 152.624 227.951 150.51L227.944 150.524Z" fill="#92E3A9"/>
<path d="M193.157 192.603C196.984 189.761 199.752 190.51 199.065 191.504C198.379 192.505 198.28 192.687 194.215 194.22C191.152 195.375 188.39 197.068 187.22 197.831C187.15 198.223 187.114 198.615 187.121 199.028C187.143 200.295 187.472 201.527 187.991 202.703C188.755 201.52 190.086 200.218 190.086 200.218C190.086 200.218 195.659 197.992 198.764 197.264C201.869 196.537 202.409 196.928 201.133 198.741C199.857 200.554 198.063 201.24 194.755 202.612C192.189 203.676 190.297 204.929 189.568 205.439C190.374 206.587 191.292 207.651 192.196 208.624C192.442 207.973 192.981 207.133 194.152 206.405C196.437 204.998 201.89 203.697 202.942 202.899C203.993 202.101 205.1 205.02 199.528 207.245C196.276 208.54 194.741 209.737 194.026 210.514C195.259 211.739 196.479 212.838 197.65 213.817C198.217 213.404 199.009 212.852 200.103 212.11C205.829 208.218 206.236 209.996 203.727 212.425C202.016 214.076 200.341 214.867 199.731 215.476C200.86 216.33 201.939 217.072 202.942 217.723C203.341 217.156 204.112 216.421 206.299 216.141C210.322 215.63 209.264 216.526 206.776 218.388C206.222 218.808 205.843 219.102 205.612 219.34C207 220.124 208.164 220.705 209.005 221.132C209.509 221.384 209.916 221.594 210.252 221.761C210.386 221.524 210.421 221.062 210.981 220.586C212.229 219.515 212.867 222.02 211.829 222.559C211.829 222.559 213.028 222.083 214.528 221.251C214.213 220.698 213.589 220.572 214.093 219.585C214.689 218.402 215.797 218.437 216.764 219.837C217.605 219.228 218.411 218.528 219.049 217.765C218.131 216.799 216.806 215.756 217.234 215.133C217.675 214.489 219.238 215.084 220.493 215.567C221.096 214.552 221.706 213.439 222.287 212.264C221.243 212.117 219.897 211.788 219.336 211.018C218.355 209.681 218.579 208.666 219.512 208.701C220.22 208.729 221.993 209.492 223.325 210.038C223.78 208.995 224.201 207.91 224.572 206.811C223.107 206.531 221.138 206.258 220.486 205.013C219.435 203.025 220.745 202.976 224.586 204.971C224.762 205.061 224.923 205.138 225.077 205.208C225.47 203.844 225.771 202.465 225.96 201.1C224.089 200.197 220.984 199.728 218.572 198.615C215.089 197.005 217.928 195.711 218.944 195.928C219.701 196.096 223.815 198.293 226.128 199.406C226.262 197.166 226.016 195.011 225.252 193.072C223.227 192.582 219.911 192.351 217.97 191.889C215.201 191.231 214.227 189.712 217.1 190.181C219.133 190.517 222.631 191.364 224.544 191.609C223.724 190.195 222.568 188.935 220.991 187.9C219.428 186.878 217.444 185.94 215.327 185.317C213.953 185.779 212.804 186.535 212.285 186.57C211.353 186.633 212.222 185.639 212.439 184.897C212.46 184.827 212.488 184.771 212.516 184.708C208.773 184.204 205.051 184.96 202.879 188.201C203.089 187.886 200.383 186.773 200.201 186.724C198.182 186.241 196.016 187.144 194.208 188.019C192.105 189.033 190.598 190.867 189.463 192.848C188.993 193.66 188.495 194.486 188.082 195.34C188.72 195.214 190.318 194.703 193.164 192.589L193.157 192.603Z" fill="#92E3A9"/>
<path d="M217.03 149.488C212.243 145.38 208.521 146.115 209.334 147.493C210.147 148.872 210.259 149.124 215.474 151.525C219.406 153.331 222.897 155.829 224.376 156.942C224.432 157.46 224.439 157.992 224.39 158.531C224.243 160.197 223.696 161.793 222.897 163.297C221.993 161.674 220.36 159.826 220.36 159.826C220.36 159.826 213.21 156.375 209.187 155.129C205.163 153.884 204.406 154.346 205.92 156.858C207.435 159.371 209.741 160.435 213.974 162.556C217.262 164.2 219.645 166.02 220.556 166.762C219.385 168.197 218.075 169.52 216.792 170.717C216.526 169.835 215.895 168.673 214.416 167.609C211.528 165.537 204.463 163.325 203.145 162.171C201.827 161.016 200.096 164.774 207.245 168.218C211.416 170.227 213.329 171.948 214.199 173.04C212.453 174.545 210.75 175.875 209.11 177.058C208.395 176.456 207.406 175.651 206.033 174.573C198.834 168.904 198.14 171.221 201.224 174.65C203.327 176.988 205.465 178.185 206.215 179.046C204.645 180.067 203.159 180.949 201.764 181.719C201.294 180.935 200.341 179.892 197.488 179.326C192.224 178.283 193.535 179.557 196.647 182.251C197.341 182.853 197.811 183.28 198.091 183.609C196.185 184.519 194.6 185.177 193.444 185.66C192.757 185.947 192.203 186.178 191.741 186.374C191.586 186.052 191.586 185.436 190.892 184.757C189.343 183.224 188.271 186.479 189.589 187.277C189.589 187.277 188.054 186.535 186.154 185.296C186.617 184.596 187.451 184.484 186.883 183.133C186.203 181.523 184.745 181.46 183.329 183.224C182.271 182.342 181.276 181.341 180.512 180.277C181.815 179.088 183.659 177.835 183.154 176.974C182.628 176.085 180.512 176.722 178.808 177.247C178.107 175.854 177.406 174.328 176.748 172.725C178.135 172.627 179.944 172.312 180.757 171.354C182.173 169.681 181.97 168.323 180.743 168.274C179.804 168.239 177.392 169.086 175.591 169.688C175.093 168.267 174.638 166.804 174.245 165.32C176.201 165.082 178.829 164.907 179.811 163.325C181.381 160.799 179.656 160.61 174.406 162.892C174.168 162.997 173.951 163.081 173.741 163.164C173.348 161.331 173.075 159.483 172.956 157.663C175.514 156.648 179.649 156.312 182.937 155.066C187.682 153.261 184.058 151.294 182.692 151.49C181.675 151.637 176.04 154.164 172.892 155.416C172.928 152.449 173.446 149.628 174.638 147.136C177.357 146.681 181.752 146.674 184.353 146.255C188.075 145.646 189.498 143.728 185.663 144.085C182.958 144.337 178.262 145.135 175.703 145.275C176.916 143.483 178.563 141.929 180.736 140.711C182.895 139.507 185.6 138.45 188.446 137.828C190.22 138.562 191.663 139.668 192.343 139.759C193.57 139.927 192.512 138.534 192.301 137.541C192.28 137.45 192.252 137.366 192.217 137.289C197.201 136.967 202.044 138.31 204.61 142.79C204.364 142.356 208.03 141.131 208.283 141.096C210.988 140.648 213.764 142.041 216.063 143.357C218.741 144.89 220.556 147.451 221.881 150.174C222.42 151.287 223.002 152.421 223.472 153.59C222.645 153.366 220.577 152.547 217.023 149.495L217.03 149.488Z" fill="#92E3A9"/>
<path d="M193.283 130.856C192.897 127.007 188.089 124.753 185.124 124.648C185.124 124.648 179.404 118.524 175.402 118.209C171.4 117.894 166.458 119.462 164.572 123.402C162.687 127.343 160.752 142.783 160.752 142.783C160.752 142.783 166.43 141.39 172.633 140.347L172.71 140.242C172.71 140.242 177.477 133.789 177.414 135.525C177.371 136.624 176.334 138.583 175.57 139.885C176.867 139.703 178.15 139.542 179.369 139.423C181.276 139.241 183.077 138.884 184.71 138.387C185.103 135.98 185.734 132.452 186.196 133.74C186.582 134.818 186.953 136.407 187.185 137.492C191.075 135.805 193.528 133.306 193.283 130.856Z" fill="#92E3A9"/>
<path d="M224.937 196.767C225.596 192.96 230.544 191.042 233.509 191.14C233.509 191.14 239.642 185.429 243.659 185.394C247.675 185.359 252.491 187.27 254.096 191.336C255.701 195.403 256.549 210.941 256.549 210.941C256.549 210.941 250.984 209.156 244.871 207.679L244.801 207.567C244.801 207.567 240.505 200.792 240.442 202.535C240.407 203.634 241.304 205.663 241.977 207.014C240.701 206.741 239.432 206.489 238.22 206.286C236.334 205.971 234.561 205.488 232.963 204.88C232.745 202.451 232.36 198.888 231.806 200.134C231.343 201.184 230.867 202.745 230.558 203.802C226.794 201.849 224.523 199.182 224.944 196.753L224.937 196.767Z" fill="#92E3A9"/>
<path d="M214.64 258.605C214.542 255.371 214.444 250.605 214.325 245.083C213.764 218.507 212.727 169.044 208.956 149.565C204.568 126.867 186.939 127.77 186.196 127.826L186.098 126.426C186.294 126.412 205.703 125.355 210.329 149.299C214.122 168.897 215.159 218.437 215.72 245.055C215.839 250.57 215.937 255.336 216.035 258.563L214.633 258.605H214.64Z" fill="#92E3A9"/>
<path d="M217.712 88.5968L216.31 88.6061L217.436 258.066L218.838 258.057L217.712 88.5968Z" fill="#92E3A9"/>
<path d="M220.801 258.213C220.661 254.77 217.346 173.705 221.229 156.795C222.477 151.371 224.895 147.836 228.421 146.283C234 143.833 240.21 147.283 240.47 147.43L239.776 148.648C239.72 148.613 233.909 145.394 228.974 147.563C225.876 148.928 223.731 152.141 222.589 157.103C218.748 173.831 222.161 257.31 222.196 258.15L220.794 258.206L220.801 258.213Z" fill="#92E3A9"/>
<path d="M223.577 258.031C223.03 251.641 218.376 195.473 224.117 191.049C226.626 189.117 229.85 188.942 233.453 190.538C236.089 191.707 237.981 193.394 238.058 193.464L237.119 194.507C237.049 194.444 230.04 188.256 224.972 192.162C224.005 192.904 221.881 197.733 223.009 226.381C223.633 242.234 224.958 257.758 224.972 257.912L223.577 258.031Z" fill="#92E3A9"/>
<path d="M212.685 257.891L211.283 257.814C215.909 176.512 214.57 143.924 212.642 142.482C207.715 139.801 199.542 146.751 199.458 146.821L198.54 145.765C198.904 145.45 207.533 138.115 213.322 141.257C214.451 141.873 217.093 143.308 215.222 200.995C214.304 229.3 212.699 257.611 212.685 257.898V257.891Z" fill="#92E3A9"/>
<path d="M241.093 246.14L244.339 175.231L310.885 173.607L307.234 251.606L291.406 252.124L241.093 246.14Z" fill="white" stroke="#263238" stroke-linecap="round" stroke-linejoin="round"/>
<path d="M231.357 170.773L244.339 175.231L310.885 173.607L295.472 167.735L231.357 170.773Z" fill="white" stroke="#263238" stroke-linecap="round" stroke-linejoin="round"/>
<path d="M291.406 252.124L295.472 167.735L310.885 173.607L307.234 251.606L291.406 252.124Z" fill="#263238" stroke="#263238" stroke-linecap="round" stroke-linejoin="round"/>
<path d="M231.357 170.773L229.121 244.11L242.089 245.706L244.339 175.231L231.357 170.773Z" fill="#263238" stroke="#263238" stroke-linecap="round" stroke-linejoin="round"/>
<path d="M161.075 249.576L225.498 263.798L226.346 288.429L162.561 269.104L161.075 249.576Z" fill="#92E3A9" stroke="#263238" stroke-linecap="round" stroke-linejoin="round"/>
<path d="M225.498 263.798L291.406 252.124V272.925L226.346 288.429L225.498 263.798Z" fill="#263238" stroke="#263238" stroke-linecap="round" stroke-linejoin="round"/>
<path d="M291.406 252.124L223.156 241.716L161.075 249.576L225.498 263.798L291.406 252.124Z" fill="white" stroke="#263238" stroke-linecap="round" stroke-linejoin="round"/>
<path d="M178.367 262.567C178.367 262.567 177.014 264.757 177.357 267.788C177.694 270.819 181.107 276.117 188.993 279.071C195.89 281.653 203.033 279.085 205.016 276.712C207.547 273.681 207.715 269.468 207.042 268.628C206.369 267.788 206.201 267.62 205.521 268.796C204.848 269.972 204.343 271.323 201.301 272.162C198.266 273.002 191.516 272.834 186.792 271.155C182.068 269.468 181.395 268.124 180.89 265.597C180.385 263.071 179.881 260.712 178.36 262.567H178.367Z" fill="#263238" stroke="#263238" stroke-linecap="round" stroke-linejoin="round"/>
<path d="M248.706 248.722C248.706 252.523 231.771 255.595 210.883 255.595C201.315 255.595 192.575 254.952 185.909 253.888C181.325 253.153 177.722 252.222 175.514 251.165C173.93 250.409 173.061 249.583 173.061 248.722C173.061 244.929 189.995 241.849 210.883 241.849C219.259 241.849 226.998 242.346 233.271 243.179C237.175 243.704 240.505 244.362 243.063 245.111C246.638 246.161 248.706 247.399 248.706 248.722Z" fill="#263238" stroke="#263238" stroke-linecap="round" stroke-linejoin="round"/>
<path d="M200.755 248.974L175.514 251.165C177.722 252.222 181.325 253.153 185.909 253.888L202.815 249.191L200.755 248.974ZM233.271 243.179L220.682 245.839L220.472 246.7L243.063 245.111C240.505 244.362 237.175 243.704 233.271 243.179Z" fill="white" stroke="#263238" stroke-linecap="round" stroke-linejoin="round"/>
<path d="M225.07 247.21C225.07 248.631 218.72 249.786 210.883 249.786C203.047 249.786 196.696 248.631 196.696 247.21C196.696 245.79 203.047 244.635 210.883 244.635C218.72 244.635 225.07 245.79 225.07 247.21Z" fill="white" stroke="#263238" stroke-linecap="round" stroke-linejoin="round"/>
<path d="M212.054 247.21C212.054 247.329 211.528 247.42 210.883 247.42C210.238 247.42 209.713 247.322 209.713 247.21C209.713 247.098 210.238 247 210.883 247C211.528 247 212.054 247.098 212.054 247.21Z" fill="white" stroke="#263238" stroke-linecap="round" stroke-linejoin="round"/>
<path d="M210.883 247.21V245.909" stroke="#263238" stroke-linecap="round" stroke-linejoin="round"/>
<path d="M224.131 249.919C223.773 249.919 223.472 249.653 223.437 249.289C223.395 248.904 223.675 248.561 224.061 248.519L262.121 244.621C262.514 244.586 262.85 244.859 262.892 245.244C262.934 245.629 262.654 245.972 262.269 246.014L224.208 249.912C224.208 249.912 224.159 249.912 224.138 249.912L224.131 249.919Z" fill="white" stroke="#263238" stroke-linecap="round" stroke-linejoin="round"/>
<path d="M224.131 249.919L224.32 252.18C224.362 252.712 224.839 253.104 225.371 253.048L234.561 252.019C235.044 251.963 235.409 251.557 235.409 251.074V249.009L224.131 249.926V249.919Z" fill="white" stroke="#263238" stroke-linecap="round" stroke-linejoin="round"/>
<path d="M263.832 249.821V251.592C263.832 252.271 265.318 252.824 267.147 252.824C268.977 252.824 270.463 252.271 270.463 251.592V249.821H263.832Z" fill="#263238" stroke="#263238" stroke-linecap="round" stroke-linejoin="round"/>
<path d="M270.463 249.821C270.463 250.43 268.977 250.92 267.147 250.92C265.318 250.92 263.832 250.43 263.832 249.821C263.832 249.212 265.318 248.722 267.147 248.722C268.977 248.722 270.463 249.212 270.463 249.821Z" fill="#263238" stroke="#263238" stroke-linecap="round" stroke-linejoin="round"/>
<path d="M271.899 241.772C270.701 241.555 269.348 241.646 268.409 241.737C267.834 241.793 260.243 242.808 260.243 243.102V250.283L263.39 250.752L272.467 249.555C273.638 249.401 274.514 248.407 274.514 247.224V244.334C274.514 242.703 273.322 242.024 271.906 241.772H271.899Z" fill="#263238" stroke="#263238" stroke-linecap="round" stroke-linejoin="round"/>
<path d="M250.801 253.223V254.994C250.801 255.672 252.287 256.225 254.117 256.225C255.946 256.225 257.432 255.672 257.432 254.994V253.223H250.801Z" fill="#263238" stroke="#263238" stroke-linecap="round" stroke-linejoin="round"/>
<path d="M257.432 253.223C257.432 253.832 255.946 254.322 254.117 254.322C252.287 254.322 250.801 253.832 250.801 253.223C250.801 252.614 252.287 252.124 254.117 252.124C255.946 252.124 257.432 252.614 257.432 253.223Z" fill="white" stroke="#263238" stroke-linecap="round" stroke-linejoin="round"/>
<path d="M239.629 255.05V256.82C239.629 257.499 241.115 258.052 242.944 258.052C244.773 258.052 246.259 257.499 246.259 256.82V255.05H239.629Z" fill="#263238" stroke="#263238" stroke-linecap="round" stroke-linejoin="round"/>
<path d="M242.937 256.148C244.768 256.148 246.252 255.656 246.252 255.05C246.252 254.443 244.768 253.951 242.937 253.951C241.106 253.951 239.621 254.443 239.621 255.05C239.621 255.656 241.106 256.148 242.937 256.148Z" fill="white" stroke="#263238" stroke-linecap="round" stroke-linejoin="round"/>
<path d="M226.829 258.255V259.305C226.829 259.711 227.713 260.04 228.792 260.04C229.871 260.04 230.755 259.711 230.755 259.305V258.255H226.822H226.829Z" fill="#263238" stroke="#263238" stroke-linecap="round" stroke-linejoin="round"/>
<path d="M230.762 258.255C230.762 258.612 229.879 258.906 228.799 258.906C227.72 258.906 226.837 258.612 226.837 258.255C226.837 257.898 227.72 257.604 228.799 257.604C229.879 257.604 230.762 257.898 230.762 258.255Z" fill="white" stroke="#263238" stroke-linecap="round" stroke-linejoin="round"/>
<path d="M111.463 172.137C111.463 172.137 133.044 174.993 136.696 179.424C140.348 183.861 140.825 187.984 141.456 191.308C142.086 194.633 147.806 232.981 148.598 240.904C149.39 248.827 150.343 251.998 148.914 255.169C147.484 258.339 139.71 263.568 135.743 264.043C131.776 264.519 127.97 264.204 125.271 263.092C122.572 261.986 113.846 256.435 113.846 256.435L20.8528 263.568C20.8528 263.568 42.1191 187.032 46.0864 181.012C50.0537 174.993 66.3995 170.241 76.2406 168.652C86.0818 167.07 111.47 172.137 111.47 172.137H111.463Z" fill="#92E3A9" stroke="#263238" stroke-linecap="round" stroke-linejoin="round"/>
<path d="M122.096 228.068C122.096 228.068 128.916 223.945 138.442 228.068" stroke="#263238" stroke-linecap="round" stroke-linejoin="round"/>
<path d="M122.572 224.106C122.572 224.106 129.554 216.82 137.327 214.125" stroke="#263238" stroke-linecap="round" stroke-linejoin="round"/>
<path d="M131.516 205.327C132.175 204.467 132.799 203.683 133.36 203.032" stroke="#263238" stroke-linecap="round" stroke-linejoin="round"/>
<path d="M121.935 219.515C121.935 219.515 125.874 213.181 129.603 207.938" stroke="#263238" stroke-linecap="round" stroke-linejoin="round"/>
<path d="M62.9369 101.705C62.9369 101.705 50.6425 100.83 44.1449 106.086C37.6472 111.35 42.9182 113.274 42.9182 113.274C42.9182 113.274 32.0327 116.956 32.0327 123.094C32.0327 129.233 36.0701 126.776 36.0701 126.776C36.0701 126.776 25.535 139.402 25.8855 145.184C26.236 150.972 31.507 147.64 31.507 147.64C31.507 147.64 30.2804 160.092 33.0841 163.948C35.8949 167.805 41.8668 166.405 41.8668 166.405C41.8668 166.405 41.3411 172.718 44.5023 172.543C47.6635 172.368 52.2266 169.387 52.2266 169.387C52.2266 169.387 53.1028 179.906 57.6729 181.663C62.236 183.42 67.507 182.888 68.9089 181.313C70.3107 179.739 71.5444 177.107 71.5444 177.107C71.5444 177.107 73.1215 182.188 75.0561 178.507C76.9907 174.825 76.4579 168.687 75.4065 167.112C74.3551 165.537 67.6822 151.154 67.6822 148.704C67.6822 146.255 77.6916 123.283 78.042 122.576C78.3925 121.876 98.7617 126.783 99.4626 127.308C100.164 127.833 111.049 157.292 111.049 157.292C111.049 157.292 107.888 162.556 108.414 167.287C108.939 172.018 110.874 174.65 116.839 168.687C122.811 162.724 128.6 152.554 128.6 152.554C128.6 152.554 130.002 161.674 134.047 152.729C138.084 143.784 133.521 134.321 131.937 129.932C130.36 125.551 126.666 120.813 126.666 120.813C126.666 120.813 131.755 124.494 131.404 118.181C131.054 111.868 112.97 95.0347 105.589 92.053C98.215 89.0714 87.3294 89.7713 87.3294 89.7713C87.3294 89.7713 91.1916 86.6147 86.979 86.4397C82.7663 86.2647 58.1846 87.1396 62.9229 101.698L62.9369 101.705Z" fill="#263238" stroke="#263238" stroke-linecap="round" stroke-linejoin="round"/>
<path d="M110.5 155.016C115.262 154.078 118.127 148.273 116.897 142.049C115.667 135.826 110.81 131.541 106.047 132.48C101.285 133.418 98.4204 139.223 99.65 145.447C100.88 151.67 105.737 155.955 110.5 155.016Z" fill="white" stroke="#263238" stroke-linecap="round" stroke-linejoin="round"/>
<path d="M68.9369 174.986C68.9369 174.986 68.1448 188.138 68.9369 200.659C69.7289 213.181 68.1448 217.611 69.5747 217.772C71.0046 217.933 70.8434 218.248 72.5887 215.868C74.3341 213.489 80.6845 203.193 81.4766 203.669C82.2686 204.145 82.7453 206.678 83.0607 208.897C83.3761 211.116 89.8878 222.524 89.8878 222.524C89.8878 222.524 94.6471 213.335 95.7616 211.277C96.8691 209.219 96.8691 208.897 97.9836 206.048C99.0911 203.193 99.8901 206.685 102.904 210.647C105.918 214.608 110.523 220.789 111 218.57C111.477 216.351 107.825 207.476 107.348 198.447C106.871 189.418 107.986 177.373 107.033 174.041C106.079 170.717 96.2453 165.481 81.3224 165.481C66.3995 165.481 68.9439 174.986 68.9439 174.986H68.9369Z" fill="white" stroke="#263238" stroke-linecap="round" stroke-linejoin="round"/>
<path d="M75.4065 167.105C75.4065 167.105 80.9999 185.919 83.8528 200.498C86.7126 215.077 89.8808 222.524 89.8808 222.524C89.8808 222.524 95.9088 207.791 99.2453 195.585C102.575 183.385 103.689 172.928 103.689 172.928L75.4065 167.105Z" fill="#ADADAD" stroke="#263238" stroke-linecap="round" stroke-linejoin="round"/>
<path d="M102.736 175.938C102.736 175.938 97.5 181.642 97.0233 187.823" stroke="#263238" stroke-linecap="round" stroke-linejoin="round"/>
<path d="M83.5233 198.86C83.6355 199.413 83.7476 199.959 83.8528 200.505C86.7126 215.084 89.8808 222.531 89.8808 222.531C89.8808 222.531 94.6962 210.759 98.1028 199.546C93.4345 200.946 87.4135 199.875 83.5233 198.86Z" fill="#263238" stroke="#263238" stroke-linecap="round" stroke-linejoin="round"/>
<path d="M73.9976 115.031L62.5864 146.066C62.5864 146.066 67.3247 160.092 69.4346 163.773C71.5444 167.455 75.5817 169.912 80.1448 172.011C84.7079 174.118 99.8131 177.8 102.974 176.568C106.135 175.336 113.685 163.067 114.385 160.26C115.086 157.453 107.012 127.819 106.311 126.419C105.61 125.019 73.9976 115.024 73.9976 115.024V115.031Z" fill="#ADADAD" stroke="#263238" stroke-linecap="round" stroke-linejoin="round"/>
<path d="M78.5677 146.066C78.5677 146.066 83.8388 147.997 87.7009 144.309" stroke="#263238" stroke-linecap="round" stroke-linejoin="round"/>
<path d="M74.6985 140.452C74.6985 140.452 76.1004 136.421 79.4369 135.014C82.7733 133.614 87.5116 134.664 87.3364 135.889C87.1612 137.114 83.8247 136.064 81.8901 136.239C79.9556 136.414 74.6915 140.445 74.6915 140.445L74.6985 140.452Z" fill="#263238"/>
<path d="M97.1775 135.896C97.1775 135.896 98.2289 132.564 100.163 132.389C102.098 132.214 108.54 134.181 106.661 133.964C105.105 133.782 99.2312 133.558 97.1775 135.896Z" fill="#263238"/>
<path d="M100.514 142.034C100.514 142.034 105.252 142.909 107.187 140.277" stroke="#263238" stroke-linecap="round" stroke-linejoin="round"/>
<path d="M97.1775 135.896C97.1775 135.896 95.7756 138.527 97.528 142.034" stroke="#263238" stroke-linecap="round" stroke-linejoin="round"/>
<path d="M102.974 151.322C102.974 151.322 100.689 153.429 98.236 154.129" stroke="#263238" stroke-linecap="round" stroke-linejoin="round"/>
<path d="M85.9415 155.353C85.9415 155.353 88.577 158.86 91.9135 159.21C95.2499 159.56 101.222 158.16 102.974 157.103" stroke="#263238" stroke-linecap="round" stroke-linejoin="round"/>
<path d="M87.1682 154.129L84.8832 156.76" stroke="#263238" stroke-linecap="round" stroke-linejoin="round"/>
<path d="M56.4953 145.359C56.4953 145.359 49.0794 132.34 53.8668 119.483C58.3527 107.458 64.6401 105.225 64.7102 105.12C64.7102 105.12 56.3761 105.008 51.1261 117.201C45.8761 129.401 52.3808 147.752 52.3808 147.752L56.4882 145.359H56.4953Z" fill="white" stroke="#263238" stroke-linecap="round" stroke-linejoin="round"/>
<path d="M138.28 251.998C135.743 249.779 134.951 247.721 133.836 247.56C132.722 247.399 132.091 246.455 128.439 247.399C125.706 248.113 119.054 248.736 115.885 249.002L115.9 248.827H94.0023C79.2476 248.827 61.3107 247.245 61.3107 247.245L57.5046 268.32C57.5046 268.32 64.8014 267.214 77.8177 265.94C85.8574 265.156 98.1378 262.497 106.353 260.579L114.638 259.438C114.638 259.438 121.465 261.02 125.902 260.39C130.346 259.753 132.883 257.219 132.883 257.219C132.883 257.219 132.883 258.962 133.675 259.438C134.467 259.914 140.818 258.486 141.925 258.171C143.033 257.856 143.033 257.695 143.194 255.952C143.355 254.21 140.811 254.21 138.273 251.991L138.28 251.998Z" fill="#ADADAD" stroke="#263238" stroke-linecap="round" stroke-linejoin="round"/>
<path d="M110.033 234.248C110.033 234.248 103.051 239.791 103.682 241.219C104.32 242.647 107.334 246.287 107.334 247.084C107.334 247.882 103.367 258.017 106.065 259.921C108.764 261.825 117.806 265.94 127.963 265.786C138.119 265.632 143.04 257.702 144.308 255.644C145.577 253.587 143.355 242.178 141.449 236.789C139.542 231.399 131.607 229.342 124.626 230.293C117.645 231.245 110.026 234.255 110.026 234.255L110.033 234.248Z" fill="white" stroke="#263238" stroke-linecap="round" stroke-linejoin="round"/>
<path d="M63.1051 162.752C63.1051 162.752 65.0187 169.674 71.4673 181.607C77.9229 193.541 81.2663 218.598 84.6098 227.907C87.9532 237.216 90.8201 240.316 90.8201 240.316C90.8201 240.316 96.3154 223.371 101.096 206.909C105.876 190.44 112.486 175.798 111.449 172.144" stroke="#263238" stroke-linecap="round" stroke-linejoin="round"/>
<path d="M109.717 157.558C109.717 157.558 104.32 163.899 105.273 164.69C106.227 165.481 107.019 166.118 107.811 165.642C108.603 165.166 109.871 164.375 109.871 164.375C109.871 164.375 104.635 170.717 102.729 175.945C100.822 181.173 102.89 180.697 103.367 184.344C103.843 187.991 108.442 232.197 108.918 238.224C109.395 244.25 110.825 248.204 117.645 249.156C124.472 250.108 132.876 244.243 133.675 242.5C134.467 240.757 135.105 238.539 133.836 234.738C132.568 230.937 111.371 188.11 112.892 184.981C115.43 179.753 124.633 163.116 125.11 161.527C125.586 159.938 117.491 155.983 116.068 154.871C114.638 153.765 110.355 155.976 109.717 157.565V157.558Z" fill="#ADADAD" stroke="#263238" stroke-linecap="round" stroke-linejoin="round"/>
<path d="M109.717 157.558C109.717 157.558 111.147 155.815 113.208 156.606C115.269 157.397 118.605 160.253 118.129 161.52" stroke="#263238" stroke-linecap="round" stroke-linejoin="round"/>
<path d="M113.047 155.017C113.047 155.017 114.953 154.703 117.652 156.445C120.35 158.188 122.411 159.77 122.257 160.722" stroke="#263238" stroke-linecap="round" stroke-linejoin="round"/>
<path d="M109.878 164.368L112.255 162.626L110.825 161.52" stroke="#263238" stroke-linecap="round" stroke-linejoin="round"/>
<path d="M53.6986 175.623C53.6986 175.623 45.764 175.308 37.9906 183.546C30.2172 191.784 28.4719 203.83 28.4719 203.83C28.4719 203.83 20.2219 237.265 17.2079 250.731C14.1939 264.197 14.5093 267.214 20.8598 269.748C27.2102 272.281 33.5537 271.33 38.4743 271.33C43.3948 271.33 47.5163 270.224 47.5163 270.224L56.8808 245.664L58.9415 236.474C58.9415 236.474 66.3995 227.914 66.5607 214.132" fill="#92E3A9"/>
<path d="M53.6986 175.623C53.6986 175.623 45.764 175.308 37.9906 183.546C30.2172 191.784 28.4719 203.83 28.4719 203.83C28.4719 203.83 20.2219 237.265 17.2079 250.731C14.1939 264.197 14.5093 267.214 20.8598 269.748C27.2102 272.281 33.5537 271.33 38.4743 271.33C43.3948 271.33 47.5163 270.224 47.5163 270.224L56.8808 245.664L58.9415 236.474C58.9415 236.474 66.3995 227.914 66.5607 214.132" stroke="#263238" stroke-linecap="round" stroke-linejoin="round"/>
<path d="M53.0748 212.397C52.7524 211.494 52.4299 210.689 52.1145 210.01" stroke="#263238" stroke-linecap="round" stroke-linejoin="round"/>
<path d="M58.9345 236.467C58.9345 236.467 56.5724 223.742 53.9929 215.224" stroke="#263238" stroke-linecap="round" stroke-linejoin="round"/>
<path d="M49.8925 243.914C49.8925 243.914 42.75 235.991 34.3387 233.772" stroke="#263238" stroke-linecap="round" stroke-linejoin="round"/>
<path d="M27.8271 240.757C26.8388 240.757 25.9276 240.855 25.1355 241.065" stroke="#263238" stroke-linecap="round" stroke-linejoin="round"/>
<path d="M44.0186 244.551C44.0186 244.551 36.0981 241.429 29.7756 240.848" stroke="#263238" stroke-linecap="round" stroke-linejoin="round"/>
<path d="M62.7476 246.77C62.7476 246.77 62.2709 265.31 61.7943 267.214C61.3177 269.118 61.0022 269.272 59.0957 270.224C57.1891 271.176 41.32 272.442 38.306 272.442C35.292 272.442 31.9555 267.053 34.3387 256.596C36.7219 246.14 41.7966 240.113 45.6027 240.113C49.4088 240.113 62.1097 245.342 62.1097 245.342L62.7476 246.77Z" fill="white" stroke="#263238" stroke-linecap="round" stroke-linejoin="round"/>
<path d="M66.2313 151.224C68.7406 157.047 67.1635 163.325 62.7056 165.243C58.2476 167.161 52.5981 163.99 50.0817 158.167C47.5724 152.344 49.1495 146.066 53.6074 144.148C58.0654 142.23 63.7149 145.401 66.2313 151.224Z" fill="white" stroke="#263238" stroke-linecap="round" stroke-linejoin="round"/>
<path d="M61.5911 154.164C63.2523 158.02 62.2079 162.178 59.257 163.451C56.306 164.718 52.563 162.626 50.8948 158.762C49.2336 154.905 50.278 150.748 53.2289 149.474C56.1799 148.207 59.9228 150.3 61.5911 154.164Z" fill="white" stroke="#263238" stroke-linecap="round" stroke-linejoin="round"/>
<path d="M228.799 255.141V258.052" stroke="#263238" stroke-width="2" stroke-linecap="round" stroke-linejoin="round"/>
<path d="M90.8341 240.309C90.8341 240.309 94.6612 247.707 95.3762 255.819C96.0911 263.931 104.699 274.675 126.203 275.151C147.715 275.627 157.03 278.014 175.199 282.073C193.36 286.133 205.072 285.412 208.9 273.961C212.727 262.511 223.479 256.54 228.806 255.141" stroke="#263238" stroke-linecap="round" stroke-linejoin="round"/>
<path d="M74.4253 270.644L23.4463 299.088L113.404 317.65L157.185 282.92L74.4253 270.644Z" fill="#92E3A9" stroke="#263238" stroke-linecap="round" stroke-linejoin="round"/>
<path d="M49.2196 284.698C49.2196 284.698 55.0584 285.839 58.542 282.969C60.4836 281.366 59.5864 278.833 59.5864 278.833L49.2196 284.698Z" fill="#92E3A9" stroke="#263238" stroke-linecap="round" stroke-linejoin="round"/>
<path d="M153.652 291.172C153.652 298.479 132.862 304.387 107.222 304.387C95.4744 304.387 84.7501 303.148 76.5631 301.104C70.9346 299.69 66.5117 297.898 63.8061 295.869C61.8645 294.413 60.7921 292.831 60.7921 291.172C60.7921 283.879 81.5818 277.958 107.222 277.958C117.505 277.958 127.002 278.91 134.706 280.512C139.5 281.52 143.587 282.787 146.727 284.229C151.115 286.245 153.652 288.632 153.652 291.172Z" fill="#263238" stroke="#263238" stroke-linecap="round" stroke-linejoin="round"/>
<path d="M94.7875 291.655L63.8062 295.869C66.5188 297.898 70.9417 299.69 76.5632 301.104L97.3178 292.075L94.7875 291.655ZM134.706 280.512L119.25 285.622L118.991 287.274L146.72 284.222C143.58 282.78 139.493 281.52 134.699 280.505L134.706 280.512Z" fill="white" stroke="#263238" stroke-linecap="round" stroke-linejoin="round"/>
<path d="M124.633 288.261C124.633 290.997 116.839 293.216 107.222 293.216C97.6052 293.216 89.8038 290.997 89.8038 288.261C89.8038 285.524 97.5982 283.305 107.222 283.305C116.846 283.305 124.633 285.524 124.633 288.261Z" fill="white" stroke="#263238" stroke-linecap="round" stroke-linejoin="round"/>
<path d="M166.878 93.5718C166.878 93.1239 166.668 92.7039 166.311 92.438C165.953 92.172 165.491 92.088 165.056 92.214L150.154 96.6235C149.551 96.7984 149.138 97.3514 149.138 97.9813V115.017C148.647 114.828 148.121 114.716 147.561 114.716C145.135 114.716 143.173 116.676 143.173 119.098C143.173 121.519 145.135 123.479 147.561 123.479C149.853 123.479 151.71 121.715 151.907 119.483H151.97V106.485L164.04 102.916V110.44C163.556 110.258 163.044 110.146 162.498 110.146C160.072 110.146 158.11 112.106 158.11 114.527C158.11 116.949 160.072 118.909 162.498 118.909C164.923 118.909 166.885 116.949 166.885 114.527C166.885 114.506 166.885 114.485 166.885 114.464V93.5858L166.878 93.5718ZM164.047 99.9551L151.977 103.525V99.0382L164.047 95.4686V99.9551Z" fill="#263238"/>
</g>
<defs>
<clipPath id="clip0_132_18">
<rect width="327" height="318" fill="white"/>
</clipPath>
</defs>
</svg>
